PathFileType	4	(X/Y/Z)	Kaydara																																																																																																																									
DataRate	CameraRate	NumFrames	NumMarkers	Units	OrigDataRate	OrigDataStartFrame	OrigNumFrames																																																																																																																					
30	30	6	41	mm	30	155	176																																																																																																																					
Frame#	Time	SALE_LFHD			SALE_RFHD			SALE_LBHD			SALE_RBHD			SALE_LFTShould			SALE_RFTShould			SALE_LRRShould			SALE_RRRShould			SALE_T10			SALE_STRN			SALE_TRUN			SALE_LSHO			SALE_LUPA			SALE_LELB			SALE_LFRM			SALE_LWRA			SALE_LWRB			SALE_LFIN			SALE_RSHO			SALE_RUPA			SALE_RELB			SALE_RFRM			SALE_RWRB			SALE_RFIN			SALE_LFWT			SALE_RFWT			SALE_LBWT			SALE_RBWT			SALE_LTHI			SALE_LKNE			SALE_RWRA			SALE_LSHN			SALE_LANK			SALE_LHEE			SALE_LTOE			SALE_RTHI			SALE_RKNE			SALE_RSHN			SALE_RANK			SALE_RHEE			SALE_RTOE		
		X1	Y1	Z1	X2	Y2	Z2	X3	Y3	Z3	X4	Y4	Z4	X5	Y5	Z5	X6	Y6	Z6	X7	Y7	Z7	X8	Y8	Z8	X9	Y9	Z9	X10	Y10	Z10	X11	Y11	Z11	X12	Y12	Z12	X13	Y13	Z13	X14	Y14	Z14	X15	Y15	Z15	X16	Y16	Z16	X17	Y17	Z17	X18	Y18	Z18	X19	Y19	Z19	X20	Y20	Z20	X21	Y21	Z21	X22	Y22	Z22	X23	Y23	Z23	X24	Y24	Z24	X25	Y25	Z25	X26	Y26	Z26	X27	Y27	Z27	X28	Y28	Z28	X29	Y29	Z29	X30	Y30	Z30	X31	Y31	Z31	X32	Y32	Z32	X33	Y33	Z33	X34	Y34	Z34	X35	Y35	Z35	X36	Y36	Z36	X37	Y37	Z37	X38	Y38	Z38	X39	Y39	Z39	X40	Y40	Z40	X41	Y41	Z41
																																																																																																																												
155	5.143	178.1592	1631.90323	1733.92685	180.88448	1592.32422	1605.93674	46.27416	1628.82614	1728.2666	53.40017	1589.41345	1607.31873	189.69213	1363.63235	1730.37918	44.68298	1358.56918	1729.80453	180.40627	1409.39163	1612.0726	34.07083	1413.9827	1617.90649	105.0823	1253.28102	1559.142	110.01708	1295.61462	1783.36258	103.94229	1212.84172	1830.7579	299.2758	1384.2392	1646.16989	345.50434	1174.86946	1619.58923	337.25307	1066.35696	1608.74039	387.60944	966.68991	1625.54138	372.33723	825.69374	1712.39899	416.05061	822.42416	1648.5112	437.19238	781.77422	1692.55447	-57.63032	1387.90665	1656.39374	-90.15414	1156.62582	1605.57266	-126.74145	1060.99258	1655.31738	-124.09785	947.89574	1659.86908	-153.94519	819.97528	1724.01199	-164.8328	786.95023	1782.75925	240.22385	954.46251	1764.8642	-37.03896	931.53809	1739.35654	191.87267	997.21153	1590.44739	20.86944	982.24442	1570.07889	243.50632	636.49567	1638.73306	215.9901	476.4373	1734.24606	-111.79792	838.34038	1783.76221	203.63569	270.12465	1727.97943	194.14577	89.21808	1672.36298	159.97788	39.54302	1603.29437	160.39135	46.21393	1798.87451	-18.65313	658.02536	1674.13864	-11.82033	543.74851	1841.34796	36.45722	337.3307	1786.34888	-2.5114	155.65892	1597.25143	56.02132	126.49185	1513.47137	-17.45691	55.77465	1677.60315
156	5.177	177.17695	1631.76804	1786.86813	179.96321	1592.72583	1658.84811	45.25415	1628.45261	1781.28082	52.4331	1589.52927	1660.20401	188.71677	1368.10165	1784.25598	44.89578	1360.63187	1779.36172	182.53672	1410.63141	1665.81665	36.33891	1413.34457	1667.09549	111.49715	1253.94684	1610.17197	108.52174	1299.75006	1835.61172	102.76812	1216.15936	1881.84387	300.68592	1388.72314	1703.94608	349.79069	1179.24416	1688.27728	343.18687	1070.49667	1679.50073	389.91703	970.97176	1712.51968	363.88443	839.62234	1811.37177	415.69263	830.50079	1754.75067	430.16739	794.00719	1805.0322	-56.02419	1386.73752	1702.68753	-81.36046	1158.74588	1643.82507	-121.25516	1060.80185	1686.32141	-117.78555	948.40523	1678.95706	-148.96352	813.65013	1725.70618	-164.6763	772.06123	1777.40875	242.27192	951.02333	1814.15939	-35.74114	935.97618	1792.59018	190.55172	996.47049	1640.43594	19.27109	985.34653	1621.27777	238.51721	641.3015	1665.99274	217.47471	473.7426	1747.23083	-112.93469	824.40498	1789.87289	204.45204	269.84367	1734.16306	193.73442	90.38972	1673.5672	158.99374	42.87235	1603.22327	159.71997	45.92242	1799.42276	-30.46475	664.57352	1737.87399	-9.03771	559.81796	1910.73654	40.94967	345.0605	1889.31686	2.81486	120.64863	1751.18927	62.57868	71.93464	1677.15363	-11.6959	48.16127	1852.88315
157	5.21	175.32215	1627.10968	1839.0564	178.65665	1587.38266	1711.36658	43.44193	1622.50458	1833.38226	51.08201	1583.07007	1712.47726	188.38154	1364.5491	1837.99515	44.87764	1355.04028	1829.96048	185.33638	1405.77057	1719.8288	38.80337	1407.58835	1717.66602	116.9807	1248.53592	1662.98508	108.23202	1295.34073	1887.84958	102.40582	1211.46622	1933.46054	302.45535	1386.03851	1761.61224	354.51698	1176.65993	1754.2485	348.12214	1067.61147	1747.63855	391.7268	971.00807	1797.32681	356.19026	852.68555	1908.28094	413.9682	837.2403	1859.24133	422.36084	807.46056	1915.03448	-54.17475	1379.82269	1750.55878	-70.98572	1154.26491	1681.32614	-115.23196	1055.22461	1715.80566	-110.44376	944.9736	1698.46161	-144.79155	806.57547	1728.37982	-164.77448	759.10133	1772.84714	242.39223	944.19853	1862.70309	-36.87058	932.61581	1845.39154	187.20776	990.58212	1691.03775	16.64759	980.72128	1673.55255	236.27056	645.09209	1695.01312	219.62114	471.36894	1763.89435	-114.33054	809.72115	1795.95322	206.22383	269.62223	1742.38525	192.71389	91.2592	1673.84079	155.03062	47.19723	1603.23639	159.79858	45.71933	1800.82535	-37.06872	662.05124	1799.89258	-8.48064	561.47362	1971.0582	40.40028	348.99712	1985.26672	2.27039	97.6099	1910.15442	60.96808	33.59915	1847.86591	-8.67258	49.79002	2026.99173
158	5.243	173.21026	1618.54065	1890.88425	177.44884	1577.45148	1763.61954	41.32276	1612.78915	1884.66599	49.87719	1572.02072	1764.23462	188.515	1353.32108	1892.30331	44.71512	1343.35342	1881.53671	188.02029	1396.33316	1773.32916	41.09983	1398.25912	1769.01245	120.87521	1239.22356	1715.36407	108.30183	1283.38745	1940.08087	102.34545	1198.94547	1984.65698	303.97591	1377.03827	1819.02054	358.42304	1167.76825	1817.25037	353.7574	1058.13057	1812.94403	393.19984	967.28439	1877.75925	349.27658	865.07988	2000.22903	411.48243	843.8102	1959.63089	414.48051	823.41377	2020.09277	-52.65064	1369.02435	1799.57733	-63.27837	1146.68335	1720.91736	-109.06284	1047.18178	1745.43488	-102.96561	938.93242	1720.76263	-139.99387	799.19388	1733.85147	-164.16634	748.36433	1771.82556	241.85369	935.96039	1911.11176	-38.51455	923.74344	1901.57211	181.71558	981.21162	1740.38193	10.75374	968.00156	1728.23273	234.16294	647.8923	1728.9473	220.69147	469.42322	1786.92398	-115.33491	796.45905	1806.09879	206.13533	269.20765	1753.35419	191.08093	94.0899	1676.17035	151.36992	52.61479	1604.43344	159.54196	45.48271	1801.3739	-33.21818	649.41269	1851.72928	-11.39504	550.97218	2025.72708	35.03104	351.85196	2073.27957	0.46691	90.93961	2060.0914	59.3782	15.92525	2012.72018	-8.68261	66.82339	2186.86249
159	5.277	171.09411	1608.43323	1942.35199	176.33034	1565.9346	1815.44464	39.16996	1601.97754	1935.37338	48.71974	1559.95178	1815.24429	187.58717	1338.57727	1945.93613	44.90008	1329.89807	1932.85675	189.77348	1385.47668	1827.00165	42.22189	1387.6619	1820.68237	122.74221	1228.57414	1767.57339	107.69583	1267.66365	1991.75797	101.92685	1182.90489	2035.51498	304.65956	1365.14786	1875.80673	360.17719	1155.35431	1876.37833	358.25481	1045.28526	1875.47409	393.89664	962.74254	1953.11356	343.30193	878.09937	2084.51614	410.12516	853.74092	2053.64944	407.10705	841.79245	2114.87625	-52.43838	1357.22687	1849.22546	-56.47703	1138.2666	1761.26053	-104.9864	1038.79463	1777.14371	-96.95466	932.40273	1746.31454	-134.94117	793.04482	1745.58578	-162.4036	740.47974	1778.21045	242.04735	926.26091	1958.69308	-38.0298	910.14786	1962.39548	174.67043	970.42091	1790.64438	1.71004	952.91611	1786.54694	231.14902	646.66794	1769.21707	220.75462	465.06462	1818.72574	-113.04604	782.74422	1816.80298	205.71886	266.2788	1771.45157	191.57181	97.02737	1681.32904	152.1691	59.00097	1606.50146	159.52689	45.08039	1801.66367	-34.33166	631.66424	1905.30945	-15.48222	531.83186	2076.7334	36.46395	354.10824	2147.12173	-3.72116	98.16525	2186.95435	49.93122	15.34859	2146.58905	0.44074	92.97617	2318.29727
160	5.31	169.27742	1599.15207	1993.6058	174.7788	1557.07199	1866.52527	37.28165	1592.87811	1986.24496	47.11837	1551.37436	1865.87341	185.42234	1326.3858	1998.54599	41.55069	1319.71375	1984.12399	188.7948	1376.12717	1878.84018	40.40265	1377.9863	1872.4855	121.05056	1217.94655	1820.43991	105.99268	1255.39917	2044.1803	100.73609	1170.84793	2088.46878	302.60788	1355.30304	1928.83423	359.22722	1145.75134	1932.2728	358.84407	1035.6752	1933.33588	392.88994	961.29044	2020.41321	338.30513	891.44836	2157.42142	406.05949	863.85544	2132.36053	401.42254	862.69165	2195.2153	-54.41406	1347.3584	1899.81659	-52.18673	1132.17407	1803.97079	-102.66088	1032.43446	1812.93884	-92.80925	928.03772	1778.5141	-130.83232	789.46968	1768.57132	-159.66914	735.28725	1795.23712	244.01407	917.30553	2008.53531	-34.37975	900.23666	2024.21661	168.14892	960.80154	1842.90436	-5.34428	943.87413	1846.06277	227.15254	641.9561	1816.26816	220.42006	458.99502	1860.17792	-110.04117	771.64078	1835.11566	204.54092	262.72869	1796.52451	193.27486	103.25018	1689.29047	155.86728	70.50716	1610.504	159.98178	44.42414	1803.09357	-34.38139	620.55248	1965.82794	-13.07114	523.2542	2137.28714	39.06981	350.85602	2211.13007	-2.65004	102.63903	2269.60861	44.45807	12.60122	2226.25732	12.80318	96.43907	2402.81494
